# xmcd
#
# Track frame offsets: 
#        150
#        33661
#        51914
#        83487
#        108132
#        136310
#        176820
#        212186
#
# Disc length: 3297 seconds
#
# Revision: 1
# Processed by: cddbd v1.5.2PL0 Copyright (c) Steve Scherf et al.
# Submitted via: ExactAudioCopy v1.0b3
#
DISCID=6a0cdf08
DTITLE=Heaven and Hell - 2007-05-12 CD1
DYEAR=2007
DGENRE=Heavy Metal
TTITLE0=E5150 - After All (The Dead)
TTITLE1=The Mob Rules
TTITLE2=Children Of The Sea
TTITLE3=Lady Evil
TTITLE4=I
TTITLE5=The Sign Of The Southern Cross
TTITLE6=Voodoo
TTITLE7=The Devil Cried
EXTD=
EXTT0=
EXTT1=
EXTT2=
EXTT3=
EXTT4=
EXTT5=
EXTT6=
EXTT7=
PLAYORDER=
